<?xml version="1.0" encoding="UTF-8"?>
<svg width="549px" height="549px" viewBox="0 0 549 549" version="1.1" xmlns="http://www.w3.org/2000/svg" xmlns:xlink="http://www.w3.org/1999/xlink">
    <!-- Generator: Sketch 43.1 (39012) - http://www.bohemiancoding.com/sketch -->
    <title>Path</title>
    <desc>Created with Sketch.</desc>
    <defs></defs>
    <g id="Page-1" stroke="none" stroke-width="1" fill="none" fill-rule="evenodd">
        <path d="M439.519167,55.1815252 L439.519167,55.1815252 L439.519167,55.1815252 L439.519167,55.1815252 L439.519167,55.1815252 C429.233897,47.4444528 418.582632,40.5471917 407.644394,34.4647969 C399.725609,30.0620244 389.781379,32.1199775 384.337214,39.3581521 L315.746563,130.456878 L310.855549,136.955021 C303.427529,146.820723 291.565987,152.192189 279.226158,151.626772 C274.726092,151.423055 270.226027,151.46463 265.742597,151.747339 C231.268433,153.930016 197.917206,170.55994 175.516694,200.310875 C157.508113,224.228864 149.610123,252.595357 151.065782,280.321599 C151.3278,285.314734 154.214164,289.87549 158.764138,291.945916 C168.205127,296.236436 175.470945,304.987934 177.288439,316.184031 C179.858717,332.019876 170.126597,347.57717 154.754838,352.18366 C136.633963,357.61333 118.022323,346.517013 113.93816,328.386238 C111.725558,318.566267 114.266723,308.800344 120.022814,301.44576 C123.216946,297.367271 124.82233,292.286829 124.364837,287.127395 C121.212295,251.572617 130.686556,214.778909 153.852329,184.013549 C183.073643,145.207621 227.537787,124.669664 272.642421,124.407743 C281.334784,124.357853 289.494793,120.204529 294.722688,113.261536 L357.88997,29.3718825 C362.835052,22.8072199 359.64092,13.3738953 351.751248,11.0581783 C245.987225,-19.9566306 127.558969,14.9412657 56.6267856,107.287236 C-35.283523,226.943699 -12.949555,399.470849 106.481026,491.696253 C117.656329,500.327183 129.280805,507.947846 141.250481,514.595658 C149.123517,518.969329 159.026157,516.828226 164.445367,509.635783 L233.036019,418.541215 L237.927033,412.043072 C245.355053,402.17737 257.216594,396.805904 269.556424,397.371322 C274.056489,397.575038 278.556555,397.533463 283.039985,397.250755 C317.514149,395.068077 350.865376,378.438153 373.265888,348.687218 C391.274469,324.769229 399.172459,296.402736 397.7168,268.676494 C397.454781,263.683359 394.568418,259.122603 390.018443,257.052177 C380.577455,252.761657 373.311637,244.010159 371.494143,232.814062 C368.923865,216.978217 378.655985,201.420923 394.027744,196.818591 C412.148619,191.388921 430.760259,202.485238 434.844422,220.616013 C437.057024,230.435983 434.515859,240.201906 428.759768,247.55649 C425.565636,251.634979 423.960252,256.715421 424.417745,261.874855 C427.570286,297.429634 418.096026,334.223341 394.930253,364.988701 C365.708938,403.79463 321.244795,424.332586 276.140161,424.594508 C267.447798,424.644397 259.287789,428.797721 254.059894,435.740715 L190.896771,519.626211 C185.98912,526.145141 189.070959,535.599253 196.902404,537.902497 C303.510709,569.22496 423.020312,533.55793 493.790293,439.569755 C584.98109,318.441543 560.688221,146.346771 439.519167,55.1815252 Z" id="Path" fill="#000000"></path>
    </g>
</svg>